<svg xmlns="http://www.w3.org/2000/svg" version="1.1" xmlns:xlink="http://www.w3.org/1999/xlink" xmlns:svgjs="http://svgjs.dev/svgjs" width="1500" height="1500" viewBox="0 0 1500 1500"><rect width="1500" height="1500" fill="#ed1703"></rect><g transform="matrix(0.6666666666666666,0,0,0.6666666666666666,249.39393939393938,435.99032258064517)"><svg viewBox="0 0 396 248" data-background-color="#ed1703" preserveAspectRatio="xMidYMid meet" height="939" width="1500" xmlns="http://www.w3.org/2000/svg" xmlns:xlink="http://www.w3.org/1999/xlink"><g id="tight-bounds" transform="matrix(1,0,0,1,0.2400000000000091,0.4000000000000057)"><svg viewBox="0 0 395.52 247.2" height="247.2" width="395.52"><g><svg></svg></g><g><svg viewBox="0 0 395.52 247.2" height="247.2" width="395.52"><g transform="matrix(1,0,0,1,128.9017981358189,47.215199999999996)"><svg viewBox="0 0 137.7164037283622 152.7696" height="152.7696" width="137.7164037283622"><g><svg viewBox="0 0 137.7164037283622 152.7696" height="152.7696" width="137.7164037283622"><g><svg viewBox="0 0 137.7164037283622 152.7696" height="152.7696" width="137.7164037283622"><g><svg viewBox="0 0 137.7164037283622 152.7696" height="152.7696" width="137.7164037283622"><g id="textblocktransform"><svg viewBox="0 0 137.7164037283622 152.7696" height="152.7696" width="137.7164037283622" id="textblock"><g><svg viewBox="0 0 137.7164037283622 152.7696" height="152.7696" width="137.7164037283622"><g transform="matrix(1,0,0,1,0,0)"><svg width="137.7164037283622" viewBox="-0.63 -17.72 16.52 18.33" height="152.7696" data-palette-color="#f7e1e1"><path d="M9.57-13.75L9.57-13.75Q11.06-12.96 12.23-11.96 13.4-10.96 14.22-9.85 15.04-8.74 15.47-7.59 15.89-6.45 15.89-5.35L15.89-5.35Q15.89-3.96 15.1-2.84 14.31-1.73 13.02-0.96 11.74-0.2 10.1 0.21 8.45 0.61 6.76 0.61L6.76 0.61Q5.49 0.61 4.3 0.33 3.1 0.05 2.11-0.54 1.12-1.12 0.42-2.04-0.29-2.95-0.59-4.22L-0.59-4.22Q-0.63-4.42-0.63-4.54L-0.63-4.54Q-0.63-5.2-0.17-5.68 0.29-6.15 0.85-6.15L0.85-6.15Q1.12-6.15 1.45-6.05 1.78-5.96 1.95-5.62L1.95-5.62Q2.27-5.03 2.84-4.57 3.42-4.1 4.13-3.77 4.83-3.44 5.63-3.26 6.42-3.08 7.18-3.08L7.18-3.08Q7.96-3.08 8.68-3.22 9.4-3.37 9.95-3.69 10.5-4 10.82-4.49 11.13-4.98 11.13-5.69L11.13-5.69Q11.13-6.93 10.57-7.98 10.01-9.03 9.12-9.92 8.23-10.82 7.09-11.58 5.96-12.35 4.83-13.06L4.83-13.06Q4.71-13.13 4.47-13.49 4.22-13.84 4.22-14.21L4.22-14.21Q4.22-14.5 4.37-14.67L4.37-14.67Q4.76-15.19 5.27-15.72 5.79-16.26 6.37-16.71 6.96-17.16 7.64-17.44 8.33-17.72 9.06-17.72L9.06-17.72Q9.59-17.72 10.06-17.58 10.52-17.43 10.84-17.2 11.16-16.97 11.34-16.69 11.52-16.41 11.52-16.16L11.52-16.16Q11.52-15.82 11.35-15.5 11.18-15.19 10.9-14.89 10.62-14.6 10.27-14.31 9.91-14.01 9.57-13.75Z" opacity="1" transform="matrix(1,0,0,1,0,0)" fill="#f7e1e1" class="wordmark-text-0" data-fill-palette-color="primary" id="text-0"></path></svg></g></svg></g></svg></g></svg></g></svg></g></svg></g></svg></g><g><path d="M192.458 0c30.402 0 58.24 10.976 79.768 29.183l-11.147 0c-19.26-14.022-42.974-22.294-68.621-22.295-25.647 0-49.361 8.272-68.621 22.295l-11.147 0c21.528-18.206 49.366-29.183 79.768-29.183zM192.458 247.2c-30.402 0-58.24-10.976-79.768-29.183l11.147 0c19.26 14.022 42.974 22.294 68.621 22.295 25.647 0 49.361-8.272 68.621-22.295l11.147 0c-21.528 18.206-49.366 29.183-79.768 29.183z" fill="#f7e1e1" stroke="transparent" data-fill-palette-color="tertiary"></path></g></svg></g><defs></defs></svg><rect width="395.52" height="247.2" fill="none" stroke="none" visibility="hidden"></rect></g></svg></g></svg>